<svg xmlns="http://www.w3.org/2000/svg" viewBox="0 0 100 100" preserveAspectRatio="none"><defs><linearGradient id="sky" x1="0" y1="0" x2="0" y2="1"><stop offset="0" stop-color="#5f7fa6"/><stop offset=".7" stop-color="#b9c7d3"/><stop offset="1" stop-color="#d7cdb4"/></linearGradient></defs><rect width="100" height="100" fill="url(#sky)"/>
<circle cx="78" cy="22" r="7" fill="#f4e4b8" opacity=".9"/><path d="M0 46 Q18 36 34 44 T70 42 T100 46 V60 H0Z" fill="#7d8f9e" opacity=".6"/><path d="M0 52 Q25 42 50 50 T100 50 V72 H0Z" fill="#5b7a62"/>
<path d="M4 60 L7 48 L10 60Z M4.6 55.8 L7 44.4 L9.4 55.8Z" fill="#2f4f3a"/><rect x="6.6" y="59" width=".8" height="3" fill="#2a1a10"/><path d="M10 60 L13 48 L16 60Z M10.6 55.8 L13 44.4 L15.4 55.8Z" fill="#2f4f3a"/><rect x="12.6" y="59" width=".8" height="3" fill="#2a1a10"/><path d="M17 60 L20 48 L23 60Z M17.6 55.8 L20 44.4 L22.4 55.8Z" fill="#2f4f3a"/><rect x="19.6" y="59" width=".8" height="3" fill="#2a1a10"/><path d="M24 60 L27 48 L30 60Z M24.6 55.8 L27 44.4 L29.4 55.8Z" fill="#2f4f3a"/><rect x="26.6" y="59" width=".8" height="3" fill="#2a1a10"/><path d="M31 60 L34 48 L37 60Z M31.6 55.8 L34 44.4 L36.4 55.8Z" fill="#2f4f3a"/><rect x="33.6" y="59" width=".8" height="3" fill="#2a1a10"/><path d="M37 60 L40 48 L43 60Z M37.6 55.8 L40 44.4 L42.4 55.8Z" fill="#2f4f3a"/><rect x="39.6" y="59" width=".8" height="3" fill="#2a1a10"/><path d="M70 60 L73 50 L76 60Z M70.6 56.5 L73 47.0 L75.4 56.5Z" fill="#2f4f3a"/><rect x="72.6" y="59" width=".8" height="3" fill="#2a1a10"/><path d="M78 60 L81 50 L84 60Z M78.6 56.5 L81 47.0 L83.4 56.5Z" fill="#2f4f3a"/><rect x="80.6" y="59" width=".8" height="3" fill="#2a1a10"/><path d="M86 60 L89 50 L92 60Z M86.6 56.5 L89 47.0 L91.4 56.5Z" fill="#2f4f3a"/><rect x="88.6" y="59" width=".8" height="3" fill="#2a1a10"/><path d="M92 60 L95 50 L98 60Z M92.6 56.5 L95 47.0 L97.4 56.5Z" fill="#2f4f3a"/><rect x="94.6" y="59" width=".8" height="3" fill="#2a1a10"/>
<path d="M0 66 H100 V100 H0Z" fill="#6f8a55"/><path d="M38 100 C42 84 46 74 50 66 L54 66 C56 74 60 84 66 100Z" fill="#a89478"/><path d="M44 100 C46 88 48 78 51 66" stroke="#8a7a60" stroke-width=".5" fill="none"/>
<rect x="60" y="56" width="1.2" height="10" fill="#5a4a3a"/><path d="M58 56 H64 V59 H58Z" fill="#8a7a5a"/><path d="M60.6 56.5 L60.6 58.5" stroke="#2a1a10" stroke-width=".3"/>
<path d="M13.4 94.0 l.6 -2.6 l.6 2.6" fill="#3e6b34"/><path d="M76.4 78.6 l.6 -2.6 l.6 2.6" fill="#3e6b34"/><path d="M49.5 83.7 l.6 -2.6 l.6 2.6" fill="#3e6b34"/><path d="M65.2 92.5 l.6 -2.6 l.6 2.6" fill="#3e6b34"/><path d="M9.4 72.7 l.6 -2.6 l.6 2.6" fill="#3e6b34"/><path d="M83.6 83.3 l.6 -2.6 l.6 2.6" fill="#3e6b34"/><path d="M76.2 72.1 l.6 -2.6 l.6 2.6" fill="#3e6b34"/><path d="M44.5 90.8 l.6 -2.6 l.6 2.6" fill="#3e6b34"/><path d="M22.9 96.6 l.6 -2.6 l.6 2.6" fill="#3e6b34"/><path d="M90.1 72.8 l.6 -2.6 l.6 2.6" fill="#3e6b34"/><path d="M2.5 86.1 l.6 -2.6 l.6 2.6" fill="#3e6b34"/><path d="M93.9 81.9 l.6 -2.6 l.6 2.6" fill="#3e6b34"/><path d="M21.7 83.0 l.6 -2.6 l.6 2.6" fill="#3e6b34"/><path d="M2.9 77.8 l.6 -2.6 l.6 2.6" fill="#3e6b34"/><path d="M43.8 84.9 l.6 -2.6 l.6 2.6" fill="#3e6b34"/><path d="M23.3 78.0 l.6 -2.6 l.6 2.6" fill="#3e6b34"/><path d="M21.9 83.9 l.6 -2.6 l.6 2.6" fill="#3e6b34"/><path d="M29.0 72.6 l.6 -2.6 l.6 2.6" fill="#3e6b34"/><path d="M83.8 86.5 l.6 -2.6 l.6 2.6" fill="#3e6b34"/><path d="M64.2 76.8 l.6 -2.6 l.6 2.6" fill="#3e6b34"/><path d="M99.3 94.4 l.6 -2.6 l.6 2.6" fill="#3e6b34"/><path d="M12.1 80.7 l.6 -2.6 l.6 2.6" fill="#3e6b34"/><path d="M72.1 90.5 l.6 -2.6 l.6 2.6" fill="#3e6b34"/><path d="M93.6 83.0 l.6 -2.6 l.6 2.6" fill="#3e6b34"/><path d="M83.0 89.4 l.6 -2.6 l.6 2.6" fill="#3e6b34"/><path d="M30.3 87.3 l.6 -2.6 l.6 2.6" fill="#3e6b34"/><path d="M88.2 94.0 l.6 -2.6 l.6 2.6" fill="#3e6b34"/><path d="M50.5 87.3 l.6 -2.6 l.6 2.6" fill="#3e6b34"/><path d="M3.5 78.3 l.6 -2.6 l.6 2.6" fill="#3e6b34"/><path d="M79.7 82.8 l.6 -2.6 l.6 2.6" fill="#3e6b34"/><path d="M17.3 86.3 l.6 -2.6 l.6 2.6" fill="#3e6b34"/><path d="M70.3 89.5 l.6 -2.6 l.6 2.6" fill="#3e6b34"/><path d="M37.5 83.4 l.6 -2.6 l.6 2.6" fill="#3e6b34"/><path d="M50.8 92.2 l.6 -2.6 l.6 2.6" fill="#3e6b34"/><path d="M52.1 82.2 l.6 -2.6 l.6 2.6" fill="#3e6b34"/><path d="M49.0 72.8 l.6 -2.6 l.6 2.6" fill="#3e6b34"/><path d="M4.3 90.3 l.6 -2.6 l.6 2.6" fill="#3e6b34"/><path d="M98.3 87.4 l.6 -2.6 l.6 2.6" fill="#3e6b34"/><path d="M39.4 76.4 l.6 -2.6 l.6 2.6" fill="#3e6b34"/><path d="M50.2 97.5 l.6 -2.6 l.6 2.6" fill="#3e6b34"/><g stroke="#4a3a2a" stroke-width=".4" opacity=".6"><path d="M8 78 l3 -1 l3 1"/><path d="M84 82 l3 -1.2 l3 1.2"/></g></svg>