<svg xmlns="http://www.w3.org/2000/svg" viewBox="0 0 100 100" preserveAspectRatio="none"><rect width="100" height="100" fill="#2a1c10"/><g fill="#3a2816"><rect x="0" y="0" width="100" height="74"/></g><g stroke="#221408" stroke-width="1.4"><path d="M0 12 H100 M0 24 H100 M0 36 H100 M0 48 H100 M0 60 H100"/></g><g stroke="#4a3620" stroke-width="2.4"><path d="M18 0 V74 M52 0 V74 M84 0 V74"/></g>
<g><rect x="26" y="20" width="16" height="12" fill="#1a1a2a"/><g stroke="#4a3620" stroke-width="1"><path d="M34 20 V32 M26 26 H42"/></g><g fill="#8ab0d0" opacity=".3"><rect x="27" y="21" width="6" height="5"/><rect x="35" y="27" width="6" height="4"/></g></g>
<g><rect x="60" y="14" width="20" height="26" fill="#5a3a1a"/><path d="M60 14 H80 L70 8Z" fill="#6a4a2a"/><g stroke="#3a2610" stroke-width=".8"><path d="M60 24 H80 M60 32 H80"/></g><g fill="#c8a040"><circle cx="64" cy="20" r="1.2"/><circle cx="76" cy="20" r="1.2"/></g><g fill="#7a3030"><rect x="62" y="26" width="4" height="5"/><rect x="72" y="26" width="4" height="5"/></g></g>
<g><rect x="4" y="40" width="30" height="4" fill="#5a3a1a"/><rect x="6" y="44" width="2" height="30" fill="#4a2e14"/><rect x="30" y="44" width="2" height="30" fill="#4a2e14"/><g fill="#c8a040"><ellipse cx="12" cy="39" rx="2" ry="1"/><rect x="11" y="35" width="2" height="4"/></g><g fill="#8a6a3a"><ellipse cx="24" cy="39" rx="3" ry="1.2"/></g></g>
<g fill="#ffd080"><circle cx="50" cy="50" r="2.4"/></g><circle cx="50" cy="50" r="10" fill="#ffd080" opacity=".1"/><path d="M50 40 V48" stroke="#5a4a2a" stroke-width=".6"/><rect x="48" y="52" width="4" height="1.5" fill="#333"/>
<path d="M0 74 H100 V100 H0Z" fill="#4a3018"/><g stroke="#3a2410" stroke-width=".6"><path d="M0 80 H100 M0 86 H100 M0 92 H100 M0 98 H100"/></g><g fill="#2a1a0a" opacity=".6"><ellipse cx="50" cy="88" rx="26" ry="4"/></g>
<g fill="#7a5a3a"><rect x="86" y="62" width="10" height="12"/><ellipse cx="91" cy="62" rx="5" ry="1.5"/></g><g fill="#5a3a1a"><rect x="88" y="66" width="1" height="6"/><rect x="94" y="66" width="1" height="6"/></g></svg>